<svg id="visual" viewBox="0 0 900 600" width="900" height="600" xmlns="http://www.w3.org/2000/svg" xmlns:xlink="http://www.w3.org/1999/xlink" version="1.1"><rect x="0" y="0" width="900" height="600" fill="#fefaf8"></rect><path d="M562 0L521 14.3C480 28.7 398 57.3 397.3 85.8C396.7 114.3 477.3 142.7 491 171.2C504.7 199.7 451.3 228.3 410.8 257C370.3 285.7 342.7 314.3 368.7 343C394.7 371.7 474.3 400.3 459.7 428.8C445 457.3 336 485.7 313 514.2C290 542.7 353 571.3 384.5 585.7L416 600L0 600L0 585.7C0 571.3 0 542.7 0 514.2C0 485.7 0 457.3 0 428.8C0 400.3 0 371.7 0 343C0 314.3 0 285.7 0 257C0 228.3 0 199.7 0 171.2C0 142.7 0 114.3 0 85.8C0 57.3 0 28.7 0 14.3L0 0Z" fill="#fef2eb" stroke-linecap="round" stroke-linejoin="miter"></path></svg>