<svg id="Capa_1" enable-background="new 0 0 511 511" height="512" viewBox="0 0 511 511" width="512" xmlns="http://www.w3.org/2000/svg"><g><path d="m108.5 353c-12.407 0-22.5 10.093-22.5 22.5s10.093 22.5 22.5 22.5 22.5-10.093 22.5-22.5-10.093-22.5-22.5-22.5zm0 30c-4.136 0-7.5-3.364-7.5-7.5s3.364-7.5 7.5-7.5 7.5 3.364 7.5 7.5-3.364 7.5-7.5 7.5z"/><path d="m415.5 353c-12.407 0-22.5 10.093-22.5 22.5s10.093 22.5 22.5 22.5 22.5-10.093 22.5-22.5-10.093-22.5-22.5-22.5zm0 30c-4.136 0-7.5-3.364-7.5-7.5s3.364-7.5 7.5-7.5 7.5 3.364 7.5 7.5-3.364 7.5-7.5 7.5z"/><path d="m28 133h208.929v-15h-42.679l-30-40h-121.25v40h-30v101.071h15zm30-40h98.75l18.75 25h-117.5z"/><path d="m278 275.5v-90c0-15.164-12.336-27.5-27.5-27.5h-140c-15.164 0-27.5 12.336-27.5 27.5v90c0 15.164 12.336 27.5 27.5 27.5h140c15.164 0 27.5-12.336 27.5-27.5zm-115-102.5h35v35h-35zm100 102.5c0 6.893-5.607 12.5-12.5 12.5h-140c-6.893 0-12.5-5.607-12.5-12.5v-90c0-6.893 5.607-12.5 12.5-12.5h37.5v50h65v-50h37.5c6.893 0 12.5 5.607 12.5 12.5z"/><path d="m498 348v-66.979l-26-22v-43.521c0-20.678-16.822-37.5-37.5-37.5h-10.798v15h10.798c12.407 0 22.5 10.093 22.5 22.5v39.5h-109v-62h60.702v-15h-60.702v-32.5c0-15.164-12.336-27.5-27.5-27.5h-68.571v15h68.571c6.893 0 12.5 5.607 12.5 12.5v172.5h-52.5v15h52.5v15h-174.016c-9.767-17.859-28.733-30-50.484-30s-40.716 12.141-50.484 30h-30.016v-113.929h-15v113.929h-13v45h53.732c7.422 23.173 29.163 40 54.768 40s47.346-16.827 54.768-40h58.234v-15h-55.565c.036-.83.063-1.662.063-2.5 0-4.293-.488-8.473-1.385-12.5h194.769c-.897 4.027-1.385 8.207-1.385 12.5 0 .838.028 1.67.063 2.5h-121.56v15h124.23c7.422 23.173 29.163 40 54.768 40s47.346-16.827 54.768-40h40.732v-45zm-446.937 30h-36.063v-15h37.385c-.897 4.027-1.385 8.207-1.385 12.5 0 .838.028 1.67.063 2.5zm57.437 40c-23.435 0-42.5-19.065-42.5-42.5s19.065-42.5 42.5-42.5 42.5 19.065 42.5 42.5-19.065 42.5-42.5 42.5zm307 0c-23.435 0-42.5-19.065-42.5-42.5s19.065-42.5 42.5-42.5 42.5 19.065 42.5 42.5-19.065 42.5-42.5 42.5zm50.484-70c-9.767-17.859-28.733-30-50.484-30s-40.716 12.141-50.484 30h-17.016v-78h113.753l21.247 17.979v16.021h-22.5v15h22.5v29zm30.016 30h-23.063c.036-.83.063-1.662.063-2.5 0-4.293-.488-8.473-1.385-12.5h24.385z"/><path d="m200.5 258h15v15h-15z"/><path d="m230.5 258h15v15h-15z"/><path d="m250.5 318h15v15h-15z"/><path d="m220.5 318h15v15h-15z"/></g></svg>